<?xml version="1.0" encoding="UTF-8"?>
<svg version="1.1" xmlns="http://www.w3.org/2000/svg" width="16" height="16">
<path d="M0 0 C0.99 0 1.98 0 3 0 C3 0.66 3 1.32 3 2 C3.66 2 4.32 2 5 2 C5 2.99 5 3.98 5 5 C5.99 5 6.98 5 8 5 C8 4.01 8 3.02 8 2 C8.66 2 9.32 2 10 2 C10 3.32 10 4.64 10 6 C10.66 6 11.32 6 12 6 C12 7.32 12 8.64 12 10 C11.34 10 10.68 10 10 10 C10 11.32 10 12.64 10 14 C9.34 14 8.68 14 8 14 C8 13.01 8 12.02 8 11 C7.01 11 6.02 11 5 11 C5 11.99 5 12.98 5 14 C4.34 14 3.68 14 3 14 C3 14.66 3 15.32 3 16 C2.01 16 1.02 16 0 16 C0 14.68 0 13.36 0 12 C-0.66 12 -1.32 12 -2 12 C-2 11.34 -2 10.68 -2 10 C-2.66 10 -3.32 10 -4 10 C-4 8.68 -4 7.36 -4 6 C-3.34 6 -2.68 6 -2 6 C-2 5.34 -2 4.68 -2 4 C-1.34 4 -0.68 4 0 4 C0 2.68 0 1.36 0 0 Z " fill="#17B2F8" transform="translate(4,0)"/>
<path d="M0 0 C0.66 0 1.32 0 2 0 C2 1.32 2 2.64 2 4 C3.65 4 5.3 4 7 4 C7 5.98 7 7.96 7 10 C6.34 10 5.68 10 5 10 C5 10.66 5 11.32 5 12 C4.01 12 3.02 12 2 12 C2 10.68 2 9.36 2 8 C1.34 8 0.68 8 0 8 C0 7.34 0 6.68 0 6 C-0.66 6 -1.32 6 -2 6 C-2 4.68 -2 3.36 -2 2 C-1.34 2 -0.68 2 0 2 C0 1.34 0 0.68 0 0 Z " fill="#20A0F4" transform="translate(2,4)"/>
<path d="M0 0 C0.66 0 1.32 0 2 0 C2 1.32 2 2.64 2 4 C2.66 4 3.32 4 4 4 C4 5.32 4 6.64 4 8 C3.34 8 2.68 8 2 8 C2 9.32 2 10.64 2 12 C1.34 12 0.68 12 0 12 C0 8.04 0 4.08 0 0 Z " fill="#219EF4" transform="translate(12,2)"/>
<path d="M0 0 C0.99 0 1.98 0 3 0 C3 2.64 3 5.28 3 8 C2.01 8 1.02 8 0 8 C0 5.36 0 2.72 0 0 Z " fill="#0CCCFC" transform="translate(4,0)"/>
</svg>
